<?xml version="1.0" encoding="utf-8" standalone="no"?>
<!DOCTYPE svg PUBLIC "-//W3C//DTD SVG 1.1//EN"
  "http://www.w3.org/Graphics/SVG/1.1/DTD/svg11.dtd">
<!-- Created with matplotlib (https://matplotlib.org/) -->
<svg height="720pt" version="1.1" viewBox="0 0 1152 720" width="1152pt" xmlns="http://www.w3.org/2000/svg" xmlns:xlink="http://www.w3.org/1999/xlink">
 <defs>
  <style type="text/css">
*{stroke-linecap:butt;stroke-linejoin:round;}
  </style>
 </defs>
 <g id="figure_1">
  <g id="patch_1">
   <path d="M 0 720 
L 1152 720 
L 1152 0 
L 0 0 
z
" style="fill:#ffffff;"/>
  </g>
  <g id="axes_1">
   <g id="patch_2">
    <path d="M 115.302 646.365632 
L 1130.250569 646.365632 
L 1130.250569 32.552 
L 115.302 32.552 
z
" style="fill:#eaeaf2;"/>
   </g>
   <g id="matplotlib.axis_1">
    <g id="xtick_1">
     <g id="line2d_1">
      <path clip-path="url(#p3cb9ad1236)" d="M 207.07777 646.365632 
L 207.07777 32.552 
" style="fill:none;stroke:#ffffff;stroke-linecap:round;"/>
     </g>
     <g id="text_1">
      <!-- 0.0 -->
      <defs>
       <path d="M 31.78125 66.40625 
Q 24.171875 66.40625 20.328125 58.90625 
Q 16.5 51.421875 16.5 36.375 
Q 16.5 21.390625 20.328125 13.890625 
Q 24.171875 6.390625 31.78125 6.390625 
Q 39.453125 6.390625 43.28125 13.890625 
Q 47.125 21.390625 47.125 36.375 
Q 47.125 51.421875 43.28125 58.90625 
Q 39.453125 66.40625 31.78125 66.40625 
z
M 31.78125 74.21875 
Q 44.046875 74.21875 50.515625 64.515625 
Q 56.984375 54.828125 56.984375 36.375 
Q 56.984375 17.96875 50.515625 8.265625 
Q 44.046875 -1.421875 31.78125 -1.421875 
Q 19.53125 -1.421875 13.0625 8.265625 
Q 6.59375 17.96875 6.59375 36.375 
Q 6.59375 54.828125 13.0625 64.515625 
Q 19.53125 74.21875 31.78125 74.21875 
z
" id="DejaVuSans-48"/>
       <path d="M 10.6875 12.40625 
L 21 12.40625 
L 21 0 
L 10.6875 0 
z
" id="DejaVuSans-46"/>
      </defs>
      <g style="fill:#262626;" transform="translate(202.231481 677.801542)rotate(-45)scale(0.132 -0.132)">
       <use xlink:href="#DejaVuSans-48"/>
       <use x="63.623047" xlink:href="#DejaVuSans-46"/>
       <use x="95.410156" xlink:href="#DejaVuSans-48"/>
      </g>
     </g>
    </g>
    <g id="xtick_2">
     <g id="line2d_2">
      <path clip-path="url(#p3cb9ad1236)" d="M 321.18213 646.365632 
L 321.18213 32.552 
" style="fill:none;stroke:#ffffff;stroke-linecap:round;"/>
     </g>
     <g id="text_2">
      <!-- 2.5 -->
      <defs>
       <path d="M 19.1875 8.296875 
L 53.609375 8.296875 
L 53.609375 0 
L 7.328125 0 
L 7.328125 8.296875 
Q 12.9375 14.109375 22.625 23.890625 
Q 32.328125 33.6875 34.8125 36.53125 
Q 39.546875 41.84375 41.421875 45.53125 
Q 43.3125 49.21875 43.3125 52.78125 
Q 43.3125 58.59375 39.234375 62.25 
Q 35.15625 65.921875 28.609375 65.921875 
Q 23.96875 65.921875 18.8125 64.3125 
Q 13.671875 62.703125 7.8125 59.421875 
L 7.8125 69.390625 
Q 13.765625 71.78125 18.9375 73 
Q 24.125 74.21875 28.421875 74.21875 
Q 39.75 74.21875 46.484375 68.546875 
Q 53.21875 62.890625 53.21875 53.421875 
Q 53.21875 48.921875 51.53125 44.890625 
Q 49.859375 40.875 45.40625 35.40625 
Q 44.1875 33.984375 37.640625 27.21875 
Q 31.109375 20.453125 19.1875 8.296875 
z
" id="DejaVuSans-50"/>
       <path d="M 10.796875 72.90625 
L 49.515625 72.90625 
L 49.515625 64.59375 
L 19.828125 64.59375 
L 19.828125 46.734375 
Q 21.96875 47.46875 24.109375 47.828125 
Q 26.265625 48.1875 28.421875 48.1875 
Q 40.625 48.1875 47.75 41.5 
Q 54.890625 34.8125 54.890625 23.390625 
Q 54.890625 11.625 47.5625 5.09375 
Q 40.234375 -1.421875 26.90625 -1.421875 
Q 22.3125 -1.421875 17.546875 -0.640625 
Q 12.796875 0.140625 7.71875 1.703125 
L 7.71875 11.625 
Q 12.109375 9.234375 16.796875 8.0625 
Q 21.484375 6.890625 26.703125 6.890625 
Q 35.15625 6.890625 40.078125 11.328125 
Q 45.015625 15.765625 45.015625 23.390625 
Q 45.015625 31 40.078125 35.4375 
Q 35.15625 39.890625 26.703125 39.890625 
Q 22.75 39.890625 18.8125 39.015625 
Q 14.890625 38.140625 10.796875 36.28125 
z
" id="DejaVuSans-53"/>
      </defs>
      <g style="fill:#262626;" transform="translate(316.335841 677.801542)rotate(-45)scale(0.132 -0.132)">
       <use xlink:href="#DejaVuSans-50"/>
       <use x="63.623047" xlink:href="#DejaVuSans-46"/>
       <use x="95.410156" xlink:href="#DejaVuSans-53"/>
      </g>
     </g>
    </g>
    <g id="xtick_3">
     <g id="line2d_3">
      <path clip-path="url(#p3cb9ad1236)" d="M 435.286491 646.365632 
L 435.286491 32.552 
" style="fill:none;stroke:#ffffff;stroke-linecap:round;"/>
     </g>
     <g id="text_3">
      <!-- 5.0 -->
      <g style="fill:#262626;" transform="translate(430.440202 677.801542)rotate(-45)scale(0.132 -0.132)">
       <use xlink:href="#DejaVuSans-53"/>
       <use x="63.623047" xlink:href="#DejaVuSans-46"/>
       <use x="95.410156" xlink:href="#DejaVuSans-48"/>
      </g>
     </g>
    </g>
    <g id="xtick_4">
     <g id="line2d_4">
      <path clip-path="url(#p3cb9ad1236)" d="M 549.390851 646.365632 
L 549.390851 32.552 
" style="fill:none;stroke:#ffffff;stroke-linecap:round;"/>
     </g>
     <g id="text_4">
      <!-- 7.5 -->
      <defs>
       <path d="M 8.203125 72.90625 
L 55.078125 72.90625 
L 55.078125 68.703125 
L 28.609375 0 
L 18.3125 0 
L 43.21875 64.59375 
L 8.203125 64.59375 
z
" id="DejaVuSans-55"/>
      </defs>
      <g style="fill:#262626;" transform="translate(544.544562 677.801542)rotate(-45)scale(0.132 -0.132)">
       <use xlink:href="#DejaVuSans-55"/>
       <use x="63.623047" xlink:href="#DejaVuSans-46"/>
       <use x="95.410156" xlink:href="#DejaVuSans-53"/>
      </g>
     </g>
    </g>
    <g id="xtick_5">
     <g id="line2d_5">
      <path clip-path="url(#p3cb9ad1236)" d="M 663.495211 646.365632 
L 663.495211 32.552 
" style="fill:none;stroke:#ffffff;stroke-linecap:round;"/>
     </g>
     <g id="text_5">
      <!-- 10.0 -->
      <defs>
       <path d="M 12.40625 8.296875 
L 28.515625 8.296875 
L 28.515625 63.921875 
L 10.984375 60.40625 
L 10.984375 69.390625 
L 28.421875 72.90625 
L 38.28125 72.90625 
L 38.28125 8.296875 
L 54.390625 8.296875 
L 54.390625 0 
L 12.40625 0 
z
" id="DejaVuSans-49"/>
      </defs>
      <g style="fill:#262626;" transform="translate(655.679604 683.740179)rotate(-45)scale(0.132 -0.132)">
       <use xlink:href="#DejaVuSans-49"/>
       <use x="63.623047" xlink:href="#DejaVuSans-48"/>
       <use x="127.246094" xlink:href="#DejaVuSans-46"/>
       <use x="159.033203" xlink:href="#DejaVuSans-48"/>
      </g>
     </g>
    </g>
    <g id="xtick_6">
     <g id="line2d_6">
      <path clip-path="url(#p3cb9ad1236)" d="M 777.599572 646.365632 
L 777.599572 32.552 
" style="fill:none;stroke:#ffffff;stroke-linecap:round;"/>
     </g>
     <g id="text_6">
      <!-- 12.5 -->
      <g style="fill:#262626;" transform="translate(769.783965 683.740179)rotate(-45)scale(0.132 -0.132)">
       <use xlink:href="#DejaVuSans-49"/>
       <use x="63.623047" xlink:href="#DejaVuSans-50"/>
       <use x="127.246094" xlink:href="#DejaVuSans-46"/>
       <use x="159.033203" xlink:href="#DejaVuSans-53"/>
      </g>
     </g>
    </g>
    <g id="xtick_7">
     <g id="line2d_7">
      <path clip-path="url(#p3cb9ad1236)" d="M 891.703932 646.365632 
L 891.703932 32.552 
" style="fill:none;stroke:#ffffff;stroke-linecap:round;"/>
     </g>
     <g id="text_7">
      <!-- 15.0 -->
      <g style="fill:#262626;" transform="translate(883.888325 683.740179)rotate(-45)scale(0.132 -0.132)">
       <use xlink:href="#DejaVuSans-49"/>
       <use x="63.623047" xlink:href="#DejaVuSans-53"/>
       <use x="127.246094" xlink:href="#DejaVuSans-46"/>
       <use x="159.033203" xlink:href="#DejaVuSans-48"/>
      </g>
     </g>
    </g>
    <g id="xtick_8">
     <g id="line2d_8">
      <path clip-path="url(#p3cb9ad1236)" d="M 1005.808292 646.365632 
L 1005.808292 32.552 
" style="fill:none;stroke:#ffffff;stroke-linecap:round;"/>
     </g>
     <g id="text_8">
      <!-- 17.5 -->
      <g style="fill:#262626;" transform="translate(997.992685 683.740179)rotate(-45)scale(0.132 -0.132)">
       <use xlink:href="#DejaVuSans-49"/>
       <use x="63.623047" xlink:href="#DejaVuSans-55"/>
       <use x="127.246094" xlink:href="#DejaVuSans-46"/>
       <use x="159.033203" xlink:href="#DejaVuSans-53"/>
      </g>
     </g>
    </g>
    <g id="xtick_9">
     <g id="line2d_9">
      <path clip-path="url(#p3cb9ad1236)" d="M 1119.912653 646.365632 
L 1119.912653 32.552 
" style="fill:none;stroke:#ffffff;stroke-linecap:round;"/>
     </g>
     <g id="text_9">
      <!-- 20.0 -->
      <g style="fill:#262626;" transform="translate(1112.097046 683.740179)rotate(-45)scale(0.132 -0.132)">
       <use xlink:href="#DejaVuSans-50"/>
       <use x="63.623047" xlink:href="#DejaVuSans-48"/>
       <use x="127.246094" xlink:href="#DejaVuSans-46"/>
       <use x="159.033203" xlink:href="#DejaVuSans-48"/>
      </g>
     </g>
    </g>
    <g id="text_10">
     <!-- Profit Margin -->
     <defs>
      <path d="M 19.671875 64.796875 
L 19.671875 37.40625 
L 32.078125 37.40625 
Q 38.96875 37.40625 42.71875 40.96875 
Q 46.484375 44.53125 46.484375 51.125 
Q 46.484375 57.671875 42.71875 61.234375 
Q 38.96875 64.796875 32.078125 64.796875 
z
M 9.8125 72.90625 
L 32.078125 72.90625 
Q 44.34375 72.90625 50.609375 67.359375 
Q 56.890625 61.8125 56.890625 51.125 
Q 56.890625 40.328125 50.609375 34.8125 
Q 44.34375 29.296875 32.078125 29.296875 
L 19.671875 29.296875 
L 19.671875 0 
L 9.8125 0 
z
" id="DejaVuSans-80"/>
      <path d="M 41.109375 46.296875 
Q 39.59375 47.171875 37.8125 47.578125 
Q 36.03125 48 33.890625 48 
Q 26.265625 48 22.1875 43.046875 
Q 18.109375 38.09375 18.109375 28.8125 
L 18.109375 0 
L 9.078125 0 
L 9.078125 54.6875 
L 18.109375 54.6875 
L 18.109375 46.1875 
Q 20.953125 51.171875 25.484375 53.578125 
Q 30.03125 56 36.53125 56 
Q 37.453125 56 38.578125 55.875 
Q 39.703125 55.765625 41.0625 55.515625 
z
" id="DejaVuSans-114"/>
      <path d="M 30.609375 48.390625 
Q 23.390625 48.390625 19.1875 42.75 
Q 14.984375 37.109375 14.984375 27.296875 
Q 14.984375 17.484375 19.15625 11.84375 
Q 23.34375 6.203125 30.609375 6.203125 
Q 37.796875 6.203125 41.984375 11.859375 
Q 46.1875 17.53125 46.1875 27.296875 
Q 46.1875 37.015625 41.984375 42.703125 
Q 37.796875 48.390625 30.609375 48.390625 
z
M 30.609375 56 
Q 42.328125 56 49.015625 48.375 
Q 55.71875 40.765625 55.71875 27.296875 
Q 55.71875 13.875 49.015625 6.21875 
Q 42.328125 -1.421875 30.609375 -1.421875 
Q 18.84375 -1.421875 12.171875 6.21875 
Q 5.515625 13.875 5.515625 27.296875 
Q 5.515625 40.765625 12.171875 48.375 
Q 18.84375 56 30.609375 56 
z
" id="DejaVuSans-111"/>
      <path d="M 37.109375 75.984375 
L 37.109375 68.5 
L 28.515625 68.5 
Q 23.6875 68.5 21.796875 66.546875 
Q 19.921875 64.59375 19.921875 59.515625 
L 19.921875 54.6875 
L 34.71875 54.6875 
L 34.71875 47.703125 
L 19.921875 47.703125 
L 19.921875 0 
L 10.890625 0 
L 10.890625 47.703125 
L 2.296875 47.703125 
L 2.296875 54.6875 
L 10.890625 54.6875 
L 10.890625 58.5 
Q 10.890625 67.625 15.140625 71.796875 
Q 19.390625 75.984375 28.609375 75.984375 
z
" id="DejaVuSans-102"/>
      <path d="M 9.421875 54.6875 
L 18.40625 54.6875 
L 18.40625 0 
L 9.421875 0 
z
M 9.421875 75.984375 
L 18.40625 75.984375 
L 18.40625 64.59375 
L 9.421875 64.59375 
z
" id="DejaVuSans-105"/>
      <path d="M 18.3125 70.21875 
L 18.3125 54.6875 
L 36.8125 54.6875 
L 36.8125 47.703125 
L 18.3125 47.703125 
L 18.3125 18.015625 
Q 18.3125 11.328125 20.140625 9.421875 
Q 21.96875 7.515625 27.59375 7.515625 
L 36.8125 7.515625 
L 36.8125 0 
L 27.59375 0 
Q 17.1875 0 13.234375 3.875 
Q 9.28125 7.765625 9.28125 18.015625 
L 9.28125 47.703125 
L 2.6875 47.703125 
L 2.6875 54.6875 
L 9.28125 54.6875 
L 9.28125 70.21875 
z
" id="DejaVuSans-116"/>
      <path id="DejaVuSans-32"/>
      <path d="M 9.8125 72.90625 
L 24.515625 72.90625 
L 43.109375 23.296875 
L 61.8125 72.90625 
L 76.515625 72.90625 
L 76.515625 0 
L 66.890625 0 
L 66.890625 64.015625 
L 48.09375 14.015625 
L 38.1875 14.015625 
L 19.390625 64.015625 
L 19.390625 0 
L 9.8125 0 
z
" id="DejaVuSans-77"/>
      <path d="M 34.28125 27.484375 
Q 23.390625 27.484375 19.1875 25 
Q 14.984375 22.515625 14.984375 16.5 
Q 14.984375 11.71875 18.140625 8.90625 
Q 21.296875 6.109375 26.703125 6.109375 
Q 34.1875 6.109375 38.703125 11.40625 
Q 43.21875 16.703125 43.21875 25.484375 
L 43.21875 27.484375 
z
M 52.203125 31.203125 
L 52.203125 0 
L 43.21875 0 
L 43.21875 8.296875 
Q 40.140625 3.328125 35.546875 0.953125 
Q 30.953125 -1.421875 24.3125 -1.421875 
Q 15.921875 -1.421875 10.953125 3.296875 
Q 6 8.015625 6 15.921875 
Q 6 25.140625 12.171875 29.828125 
Q 18.359375 34.515625 30.609375 34.515625 
L 43.21875 34.515625 
L 43.21875 35.40625 
Q 43.21875 41.609375 39.140625 45 
Q 35.0625 48.390625 27.6875 48.390625 
Q 23 48.390625 18.546875 47.265625 
Q 14.109375 46.140625 10.015625 43.890625 
L 10.015625 52.203125 
Q 14.9375 54.109375 19.578125 55.046875 
Q 24.21875 56 28.609375 56 
Q 40.484375 56 46.34375 49.84375 
Q 52.203125 43.703125 52.203125 31.203125 
z
" id="DejaVuSans-97"/>
      <path d="M 45.40625 27.984375 
Q 45.40625 37.75 41.375 43.109375 
Q 37.359375 48.484375 30.078125 48.484375 
Q 22.859375 48.484375 18.828125 43.109375 
Q 14.796875 37.75 14.796875 27.984375 
Q 14.796875 18.265625 18.828125 12.890625 
Q 22.859375 7.515625 30.078125 7.515625 
Q 37.359375 7.515625 41.375 12.890625 
Q 45.40625 18.265625 45.40625 27.984375 
z
M 54.390625 6.78125 
Q 54.390625 -7.171875 48.1875 -13.984375 
Q 42 -20.796875 29.203125 -20.796875 
Q 24.46875 -20.796875 20.265625 -20.09375 
Q 16.0625 -19.390625 12.109375 -17.921875 
L 12.109375 -9.1875 
Q 16.0625 -11.328125 19.921875 -12.34375 
Q 23.78125 -13.375 27.78125 -13.375 
Q 36.625 -13.375 41.015625 -8.765625 
Q 45.40625 -4.15625 45.40625 5.171875 
L 45.40625 9.625 
Q 42.625 4.78125 38.28125 2.390625 
Q 33.9375 0 27.875 0 
Q 17.828125 0 11.671875 7.65625 
Q 5.515625 15.328125 5.515625 27.984375 
Q 5.515625 40.671875 11.671875 48.328125 
Q 17.828125 56 27.875 56 
Q 33.9375 56 38.28125 53.609375 
Q 42.625 51.21875 45.40625 46.390625 
L 45.40625 54.6875 
L 54.390625 54.6875 
z
" id="DejaVuSans-103"/>
      <path d="M 54.890625 33.015625 
L 54.890625 0 
L 45.90625 0 
L 45.90625 32.71875 
Q 45.90625 40.484375 42.875 44.328125 
Q 39.84375 48.1875 33.796875 48.1875 
Q 26.515625 48.1875 22.3125 43.546875 
Q 18.109375 38.921875 18.109375 30.90625 
L 18.109375 0 
L 9.078125 0 
L 9.078125 54.6875 
L 18.109375 54.6875 
L 18.109375 46.1875 
Q 21.34375 51.125 25.703125 53.5625 
Q 30.078125 56 35.796875 56 
Q 45.21875 56 50.046875 50.171875 
Q 54.890625 44.34375 54.890625 33.015625 
z
" id="DejaVuSans-110"/>
     </defs>
     <g style="fill:#262626;" transform="translate(577.119284 700.623069)scale(0.144 -0.144)">
      <use xlink:href="#DejaVuSans-80"/>
      <use x="58.552734" xlink:href="#DejaVuSans-114"/>
      <use x="97.416016" xlink:href="#DejaVuSans-111"/>
      <use x="158.597656" xlink:href="#DejaVuSans-102"/>
      <use x="193.802734" xlink:href="#DejaVuSans-105"/>
      <use x="221.585938" xlink:href="#DejaVuSans-116"/>
      <use x="260.794922" xlink:href="#DejaVuSans-32"/>
      <use x="292.582031" xlink:href="#DejaVuSans-77"/>
      <use x="378.861328" xlink:href="#DejaVuSans-97"/>
      <use x="440.140625" xlink:href="#DejaVuSans-114"/>
      <use x="479.503906" xlink:href="#DejaVuSans-103"/>
      <use x="542.980469" xlink:href="#DejaVuSans-105"/>
      <use x="570.763672" xlink:href="#DejaVuSans-110"/>
     </g>
    </g>
   </g>
   <g id="matplotlib.axis_2">
    <g id="ytick_1">
     <g id="text_11">
      <!-- Action -->
      <defs>
       <path d="M 34.1875 63.1875 
L 20.796875 26.90625 
L 47.609375 26.90625 
z
M 28.609375 72.90625 
L 39.796875 72.90625 
L 67.578125 0 
L 57.328125 0 
L 50.6875 18.703125 
L 17.828125 18.703125 
L 11.1875 0 
L 0.78125 0 
z
" id="DejaVuSans-65"/>
       <path d="M 48.78125 52.59375 
L 48.78125 44.1875 
Q 44.96875 46.296875 41.140625 47.34375 
Q 37.3125 48.390625 33.40625 48.390625 
Q 24.65625 48.390625 19.8125 42.84375 
Q 14.984375 37.3125 14.984375 27.296875 
Q 14.984375 17.28125 19.8125 11.734375 
Q 24.65625 6.203125 33.40625 6.203125 
Q 37.3125 6.203125 41.140625 7.25 
Q 44.96875 8.296875 48.78125 10.40625 
L 48.78125 2.09375 
Q 45.015625 0.34375 40.984375 -0.53125 
Q 36.96875 -1.421875 32.421875 -1.421875 
Q 20.0625 -1.421875 12.78125 6.34375 
Q 5.515625 14.109375 5.515625 27.296875 
Q 5.515625 40.671875 12.859375 48.328125 
Q 20.21875 56 33.015625 56 
Q 37.15625 56 41.109375 55.140625 
Q 45.0625 54.296875 48.78125 52.59375 
z
" id="DejaVuSans-99"/>
      </defs>
      <g style="fill:#262626;" transform="translate(64.46125 50.910743)scale(0.132 -0.132)">
       <use xlink:href="#DejaVuSans-65"/>
       <use x="66.658203" xlink:href="#DejaVuSans-99"/>
       <use x="121.638672" xlink:href="#DejaVuSans-116"/>
       <use x="160.847656" xlink:href="#DejaVuSans-105"/>
       <use x="188.630859" xlink:href="#DejaVuSans-111"/>
       <use x="249.8125" xlink:href="#DejaVuSans-110"/>
      </g>
     </g>
    </g>
    <g id="ytick_2">
     <g id="text_12">
      <!-- Adventure -->
      <defs>
       <path d="M 45.40625 46.390625 
L 45.40625 75.984375 
L 54.390625 75.984375 
L 54.390625 0 
L 45.40625 0 
L 45.40625 8.203125 
Q 42.578125 3.328125 38.25 0.953125 
Q 33.9375 -1.421875 27.875 -1.421875 
Q 17.96875 -1.421875 11.734375 6.484375 
Q 5.515625 14.40625 5.515625 27.296875 
Q 5.515625 40.1875 11.734375 48.09375 
Q 17.96875 56 27.875 56 
Q 33.9375 56 38.25 53.625 
Q 42.578125 51.265625 45.40625 46.390625 
z
M 14.796875 27.296875 
Q 14.796875 17.390625 18.875 11.75 
Q 22.953125 6.109375 30.078125 6.109375 
Q 37.203125 6.109375 41.296875 11.75 
Q 45.40625 17.390625 45.40625 27.296875 
Q 45.40625 37.203125 41.296875 42.84375 
Q 37.203125 48.484375 30.078125 48.484375 
Q 22.953125 48.484375 18.875 42.84375 
Q 14.796875 37.203125 14.796875 27.296875 
z
" id="DejaVuSans-100"/>
       <path d="M 2.984375 54.6875 
L 12.5 54.6875 
L 29.59375 8.796875 
L 46.6875 54.6875 
L 56.203125 54.6875 
L 35.6875 0 
L 23.484375 0 
z
" id="DejaVuSans-118"/>
       <path d="M 56.203125 29.59375 
L 56.203125 25.203125 
L 14.890625 25.203125 
Q 15.484375 15.921875 20.484375 11.0625 
Q 25.484375 6.203125 34.421875 6.203125 
Q 39.59375 6.203125 44.453125 7.46875 
Q 49.3125 8.734375 54.109375 11.28125 
L 54.109375 2.78125 
Q 49.265625 0.734375 44.1875 -0.34375 
Q 39.109375 -1.421875 33.890625 -1.421875 
Q 20.796875 -1.421875 13.15625 6.1875 
Q 5.515625 13.8125 5.515625 26.8125 
Q 5.515625 40.234375 12.765625 48.109375 
Q 20.015625 56 32.328125 56 
Q 43.359375 56 49.78125 48.890625 
Q 56.203125 41.796875 56.203125 29.59375 
z
M 47.21875 32.234375 
Q 47.125 39.59375 43.09375 43.984375 
Q 39.0625 48.390625 32.421875 48.390625 
Q 24.90625 48.390625 20.390625 44.140625 
Q 15.875 39.890625 15.1875 32.171875 
z
" id="DejaVuSans-101"/>
       <path d="M 8.5 21.578125 
L 8.5 54.6875 
L 17.484375 54.6875 
L 17.484375 21.921875 
Q 17.484375 14.15625 20.5 10.265625 
Q 23.53125 6.390625 29.59375 6.390625 
Q 36.859375 6.390625 41.078125 11.03125 
Q 45.3125 15.671875 45.3125 23.6875 
L 45.3125 54.6875 
L 54.296875 54.6875 
L 54.296875 0 
L 45.3125 0 
L 45.3125 8.40625 
Q 42.046875 3.421875 37.71875 1 
Q 33.40625 -1.421875 27.6875 -1.421875 
Q 18.265625 -1.421875 13.375 4.4375 
Q 8.5 10.296875 8.5 21.578125 
z
M 31.109375 56 
z
" id="DejaVuSans-117"/>
      </defs>
      <g style="fill:#262626;" transform="translate(37.531188 77.598293)scale(0.132 -0.132)">
       <use xlink:href="#DejaVuSans-65"/>
       <use x="66.658203" xlink:href="#DejaVuSans-100"/>
       <use x="130.134766" xlink:href="#DejaVuSans-118"/>
       <use x="189.314453" xlink:href="#DejaVuSans-101"/>
       <use x="250.837891" xlink:href="#DejaVuSans-110"/>
       <use x="314.216797" xlink:href="#DejaVuSans-116"/>
       <use x="353.425781" xlink:href="#DejaVuSans-117"/>
       <use x="416.804688" xlink:href="#DejaVuSans-114"/>
       <use x="455.667969" xlink:href="#DejaVuSans-101"/>
      </g>
     </g>
    </g>
    <g id="ytick_3">
     <g id="text_13">
      <!-- Animation -->
      <defs>
       <path d="M 52 44.1875 
Q 55.375 50.25 60.0625 53.125 
Q 64.75 56 71.09375 56 
Q 79.640625 56 84.28125 50.015625 
Q 88.921875 44.046875 88.921875 33.015625 
L 88.921875 0 
L 79.890625 0 
L 79.890625 32.71875 
Q 79.890625 40.578125 77.09375 44.375 
Q 74.3125 48.1875 68.609375 48.1875 
Q 61.625 48.1875 57.5625 43.546875 
Q 53.515625 38.921875 53.515625 30.90625 
L 53.515625 0 
L 44.484375 0 
L 44.484375 32.71875 
Q 44.484375 40.625 41.703125 44.40625 
Q 38.921875 48.1875 33.109375 48.1875 
Q 26.21875 48.1875 22.15625 43.53125 
Q 18.109375 38.875 18.109375 30.90625 
L 18.109375 0 
L 9.078125 0 
L 9.078125 54.6875 
L 18.109375 54.6875 
L 18.109375 46.1875 
Q 21.1875 51.21875 25.484375 53.609375 
Q 29.78125 56 35.6875 56 
Q 41.65625 56 45.828125 52.96875 
Q 50 49.953125 52 44.1875 
z
" id="DejaVuSans-109"/>
      </defs>
      <g style="fill:#262626;" transform="translate(38.508813 104.285842)scale(0.132 -0.132)">
       <use xlink:href="#DejaVuSans-65"/>
       <use x="68.408203" xlink:href="#DejaVuSans-110"/>
       <use x="131.787109" xlink:href="#DejaVuSans-105"/>
       <use x="159.570312" xlink:href="#DejaVuSans-109"/>
       <use x="256.982422" xlink:href="#DejaVuSans-97"/>
       <use x="318.261719" xlink:href="#DejaVuSans-116"/>
       <use x="357.470703" xlink:href="#DejaVuSans-105"/>
       <use x="385.253906" xlink:href="#DejaVuSans-111"/>
       <use x="446.435547" xlink:href="#DejaVuSans-110"/>
      </g>
     </g>
    </g>
    <g id="ytick_4">
     <g id="text_14">
      <!-- Biography -->
      <defs>
       <path d="M 19.671875 34.8125 
L 19.671875 8.109375 
L 35.5 8.109375 
Q 43.453125 8.109375 47.28125 11.40625 
Q 51.125 14.703125 51.125 21.484375 
Q 51.125 28.328125 47.28125 31.5625 
Q 43.453125 34.8125 35.5 34.8125 
z
M 19.671875 64.796875 
L 19.671875 42.828125 
L 34.28125 42.828125 
Q 41.5 42.828125 45.03125 45.53125 
Q 48.578125 48.25 48.578125 53.8125 
Q 48.578125 59.328125 45.03125 62.0625 
Q 41.5 64.796875 34.28125 64.796875 
z
M 9.8125 72.90625 
L 35.015625 72.90625 
Q 46.296875 72.90625 52.390625 68.21875 
Q 58.5 63.53125 58.5 54.890625 
Q 58.5 48.1875 55.375 44.234375 
Q 52.25 40.28125 46.1875 39.3125 
Q 53.46875 37.75 57.5 32.78125 
Q 61.53125 27.828125 61.53125 20.40625 
Q 61.53125 10.640625 54.890625 5.3125 
Q 48.25 0 35.984375 0 
L 9.8125 0 
z
" id="DejaVuSans-66"/>
       <path d="M 18.109375 8.203125 
L 18.109375 -20.796875 
L 9.078125 -20.796875 
L 9.078125 54.6875 
L 18.109375 54.6875 
L 18.109375 46.390625 
Q 20.953125 51.265625 25.265625 53.625 
Q 29.59375 56 35.59375 56 
Q 45.5625 56 51.78125 48.09375 
Q 58.015625 40.1875 58.015625 27.296875 
Q 58.015625 14.40625 51.78125 6.484375 
Q 45.5625 -1.421875 35.59375 -1.421875 
Q 29.59375 -1.421875 25.265625 0.953125 
Q 20.953125 3.328125 18.109375 8.203125 
z
M 48.6875 27.296875 
Q 48.6875 37.203125 44.609375 42.84375 
Q 40.53125 48.484375 33.40625 48.484375 
Q 26.265625 48.484375 22.1875 42.84375 
Q 18.109375 37.203125 18.109375 27.296875 
Q 18.109375 17.390625 22.1875 11.75 
Q 26.265625 6.109375 33.40625 6.109375 
Q 40.53125 6.109375 44.609375 11.75 
Q 48.6875 17.390625 48.6875 27.296875 
z
" id="DejaVuSans-112"/>
       <path d="M 54.890625 33.015625 
L 54.890625 0 
L 45.90625 0 
L 45.90625 32.71875 
Q 45.90625 40.484375 42.875 44.328125 
Q 39.84375 48.1875 33.796875 48.1875 
Q 26.515625 48.1875 22.3125 43.546875 
Q 18.109375 38.921875 18.109375 30.90625 
L 18.109375 0 
L 9.078125 0 
L 9.078125 75.984375 
L 18.109375 75.984375 
L 18.109375 46.1875 
Q 21.34375 51.125 25.703125 53.5625 
Q 30.078125 56 35.796875 56 
Q 45.21875 56 50.046875 50.171875 
Q 54.890625 44.34375 54.890625 33.015625 
z
" id="DejaVuSans-104"/>
       <path d="M 32.171875 -5.078125 
Q 28.375 -14.84375 24.75 -17.8125 
Q 21.140625 -20.796875 15.09375 -20.796875 
L 7.90625 -20.796875 
L 7.90625 -13.28125 
L 13.1875 -13.28125 
Q 16.890625 -13.28125 18.9375 -11.515625 
Q 21 -9.765625 23.484375 -3.21875 
L 25.09375 0.875 
L 2.984375 54.6875 
L 12.5 54.6875 
L 29.59375 11.921875 
L 46.6875 54.6875 
L 56.203125 54.6875 
z
" id="DejaVuSans-121"/>
      </defs>
      <g style="fill:#262626;" transform="translate(38.548 130.973391)scale(0.132 -0.132)">
       <use xlink:href="#DejaVuSans-66"/>
       <use x="68.603516" xlink:href="#DejaVuSans-105"/>
       <use x="96.386719" xlink:href="#DejaVuSans-111"/>
       <use x="157.568359" xlink:href="#DejaVuSans-103"/>
       <use x="221.044922" xlink:href="#DejaVuSans-114"/>
       <use x="262.158203" xlink:href="#DejaVuSans-97"/>
       <use x="323.4375" xlink:href="#DejaVuSans-112"/>
       <use x="386.914062" xlink:href="#DejaVuSans-104"/>
       <use x="450.292969" xlink:href="#DejaVuSans-121"/>
      </g>
     </g>
    </g>
    <g id="ytick_5">
     <g id="text_15">
      <!-- Comedy -->
      <defs>
       <path d="M 64.40625 67.28125 
L 64.40625 56.890625 
Q 59.421875 61.53125 53.78125 63.8125 
Q 48.140625 66.109375 41.796875 66.109375 
Q 29.296875 66.109375 22.65625 58.46875 
Q 16.015625 50.828125 16.015625 36.375 
Q 16.015625 21.96875 22.65625 14.328125 
Q 29.296875 6.6875 41.796875 6.6875 
Q 48.140625 6.6875 53.78125 8.984375 
Q 59.421875 11.28125 64.40625 15.921875 
L 64.40625 5.609375 
Q 59.234375 2.09375 53.4375 0.328125 
Q 47.65625 -1.421875 41.21875 -1.421875 
Q 24.65625 -1.421875 15.125 8.703125 
Q 5.609375 18.84375 5.609375 36.375 
Q 5.609375 53.953125 15.125 64.078125 
Q 24.65625 74.21875 41.21875 74.21875 
Q 47.75 74.21875 53.53125 72.484375 
Q 59.328125 70.75 64.40625 67.28125 
z
" id="DejaVuSans-67"/>
      </defs>
      <g style="fill:#262626;" transform="translate(51.3355 157.66094)scale(0.132 -0.132)">
       <use xlink:href="#DejaVuSans-67"/>
       <use x="69.824219" xlink:href="#DejaVuSans-111"/>
       <use x="131.005859" xlink:href="#DejaVuSans-109"/>
       <use x="228.417969" xlink:href="#DejaVuSans-101"/>
       <use x="289.941406" xlink:href="#DejaVuSans-100"/>
       <use x="353.417969" xlink:href="#DejaVuSans-121"/>
      </g>
     </g>
    </g>
    <g id="ytick_6">
     <g id="text_16">
      <!-- Crime -->
      <g style="fill:#262626;" transform="translate(66.511375 184.348489)scale(0.132 -0.132)">
       <use xlink:href="#DejaVuSans-67"/>
       <use x="69.824219" xlink:href="#DejaVuSans-114"/>
       <use x="110.9375" xlink:href="#DejaVuSans-105"/>
       <use x="138.720703" xlink:href="#DejaVuSans-109"/>
       <use x="236.132812" xlink:href="#DejaVuSans-101"/>
      </g>
     </g>
    </g>
    <g id="ytick_7">
     <g id="text_17">
      <!-- Documentary -->
      <defs>
       <path d="M 19.671875 64.796875 
L 19.671875 8.109375 
L 31.59375 8.109375 
Q 46.6875 8.109375 53.6875 14.9375 
Q 60.6875 21.78125 60.6875 36.53125 
Q 60.6875 51.171875 53.6875 57.984375 
Q 46.6875 64.796875 31.59375 64.796875 
z
M 9.8125 72.90625 
L 30.078125 72.90625 
Q 51.265625 72.90625 61.171875 64.09375 
Q 71.09375 55.28125 71.09375 36.53125 
Q 71.09375 17.671875 61.125 8.828125 
Q 51.171875 0 30.078125 0 
L 9.8125 0 
z
" id="DejaVuSans-68"/>
      </defs>
      <g style="fill:#262626;" transform="translate(16.089438 211.036039)scale(0.132 -0.132)">
       <use xlink:href="#DejaVuSans-68"/>
       <use x="77.001953" xlink:href="#DejaVuSans-111"/>
       <use x="138.183594" xlink:href="#DejaVuSans-99"/>
       <use x="193.164062" xlink:href="#DejaVuSans-117"/>
       <use x="256.542969" xlink:href="#DejaVuSans-109"/>
       <use x="353.955078" xlink:href="#DejaVuSans-101"/>
       <use x="415.478516" xlink:href="#DejaVuSans-110"/>
       <use x="478.857422" xlink:href="#DejaVuSans-116"/>
       <use x="518.066406" xlink:href="#DejaVuSans-97"/>
       <use x="579.345703" xlink:href="#DejaVuSans-114"/>
       <use x="620.458984" xlink:href="#DejaVuSans-121"/>
      </g>
     </g>
    </g>
    <g id="ytick_8">
     <g id="text_18">
      <!-- Drama -->
      <g style="fill:#262626;" transform="translate(61.175688 237.723588)scale(0.132 -0.132)">
       <use xlink:href="#DejaVuSans-68"/>
       <use x="77.001953" xlink:href="#DejaVuSans-114"/>
       <use x="118.115234" xlink:href="#DejaVuSans-97"/>
       <use x="179.394531" xlink:href="#DejaVuSans-109"/>
       <use x="276.806641" xlink:href="#DejaVuSans-97"/>
      </g>
     </g>
    </g>
    <g id="ytick_9">
     <g id="text_19">
      <!-- Family -->
      <defs>
       <path d="M 9.8125 72.90625 
L 51.703125 72.90625 
L 51.703125 64.59375 
L 19.671875 64.59375 
L 19.671875 43.109375 
L 48.578125 43.109375 
L 48.578125 34.8125 
L 19.671875 34.8125 
L 19.671875 0 
L 9.8125 0 
z
" id="DejaVuSans-70"/>
       <path d="M 9.421875 75.984375 
L 18.40625 75.984375 
L 18.40625 0 
L 9.421875 0 
z
" id="DejaVuSans-108"/>
      </defs>
      <g style="fill:#262626;" transform="translate(63.320688 264.411137)scale(0.132 -0.132)">
       <use xlink:href="#DejaVuSans-70"/>
       <use x="48.394531" xlink:href="#DejaVuSans-97"/>
       <use x="109.673828" xlink:href="#DejaVuSans-109"/>
       <use x="207.085938" xlink:href="#DejaVuSans-105"/>
       <use x="234.869141" xlink:href="#DejaVuSans-108"/>
       <use x="262.652344" xlink:href="#DejaVuSans-121"/>
      </g>
     </g>
    </g>
    <g id="ytick_10">
     <g id="text_20">
      <!-- Fantasy -->
      <defs>
       <path d="M 44.28125 53.078125 
L 44.28125 44.578125 
Q 40.484375 46.53125 36.375 47.5 
Q 32.28125 48.484375 27.875 48.484375 
Q 21.1875 48.484375 17.84375 46.4375 
Q 14.5 44.390625 14.5 40.28125 
Q 14.5 37.15625 16.890625 35.375 
Q 19.28125 33.59375 26.515625 31.984375 
L 29.59375 31.296875 
Q 39.15625 29.25 43.1875 25.515625 
Q 47.21875 21.78125 47.21875 15.09375 
Q 47.21875 7.46875 41.1875 3.015625 
Q 35.15625 -1.421875 24.609375 -1.421875 
Q 20.21875 -1.421875 15.453125 -0.5625 
Q 10.6875 0.296875 5.421875 2 
L 5.421875 11.28125 
Q 10.40625 8.6875 15.234375 7.390625 
Q 20.0625 6.109375 24.8125 6.109375 
Q 31.15625 6.109375 34.5625 8.28125 
Q 37.984375 10.453125 37.984375 14.40625 
Q 37.984375 18.0625 35.515625 20.015625 
Q 33.0625 21.96875 24.703125 23.78125 
L 21.578125 24.515625 
Q 13.234375 26.265625 9.515625 29.90625 
Q 5.8125 33.546875 5.8125 39.890625 
Q 5.8125 47.609375 11.28125 51.796875 
Q 16.75 56 26.8125 56 
Q 31.78125 56 36.171875 55.265625 
Q 40.578125 54.546875 44.28125 53.078125 
z
" id="DejaVuSans-115"/>
      </defs>
      <g style="fill:#262626;" transform="translate(55.00675 291.098686)scale(0.132 -0.132)">
       <use xlink:href="#DejaVuSans-70"/>
       <use x="48.394531" xlink:href="#DejaVuSans-97"/>
       <use x="109.673828" xlink:href="#DejaVuSans-110"/>
       <use x="173.052734" xlink:href="#DejaVuSans-116"/>
       <use x="212.261719" xlink:href="#DejaVuSans-97"/>
       <use x="273.541016" xlink:href="#DejaVuSans-115"/>
       <use x="325.640625" xlink:href="#DejaVuSans-121"/>
      </g>
     </g>
    </g>
    <g id="ytick_11">
     <g id="text_21">
      <!-- History -->
      <defs>
       <path d="M 9.8125 72.90625 
L 19.671875 72.90625 
L 19.671875 43.015625 
L 55.515625 43.015625 
L 55.515625 72.90625 
L 65.375 72.90625 
L 65.375 0 
L 55.515625 0 
L 55.515625 34.71875 
L 19.671875 34.71875 
L 19.671875 0 
L 9.8125 0 
z
" id="DejaVuSans-72"/>
      </defs>
      <g style="fill:#262626;" transform="translate(58.840938 317.786235)scale(0.132 -0.132)">
       <use xlink:href="#DejaVuSans-72"/>
       <use x="75.195312" xlink:href="#DejaVuSans-105"/>
       <use x="102.978516" xlink:href="#DejaVuSans-115"/>
       <use x="155.078125" xlink:href="#DejaVuSans-116"/>
       <use x="194.287109" xlink:href="#DejaVuSans-111"/>
       <use x="255.46875" xlink:href="#DejaVuSans-114"/>
       <use x="296.582031" xlink:href="#DejaVuSans-121"/>
      </g>
     </g>
    </g>
    <g id="ytick_12">
     <g id="text_22">
      <!-- Horror -->
      <g style="fill:#262626;" transform="translate(63.970375 344.473785)scale(0.132 -0.132)">
       <use xlink:href="#DejaVuSans-72"/>
       <use x="75.195312" xlink:href="#DejaVuSans-111"/>
       <use x="136.376953" xlink:href="#DejaVuSans-114"/>
       <use x="175.740234" xlink:href="#DejaVuSans-114"/>
       <use x="214.603516" xlink:href="#DejaVuSans-111"/>
       <use x="275.785156" xlink:href="#DejaVuSans-114"/>
      </g>
     </g>
    </g>
    <g id="ytick_13">
     <g id="text_23">
      <!-- Music -->
      <g style="fill:#262626;" transform="translate(68.245937 371.161334)scale(0.132 -0.132)">
       <use xlink:href="#DejaVuSans-77"/>
       <use x="86.279297" xlink:href="#DejaVuSans-117"/>
       <use x="149.658203" xlink:href="#DejaVuSans-115"/>
       <use x="201.757812" xlink:href="#DejaVuSans-105"/>
       <use x="229.541016" xlink:href="#DejaVuSans-99"/>
      </g>
     </g>
    </g>
    <g id="ytick_14">
     <g id="text_24">
      <!-- Musical -->
      <g style="fill:#262626;" transform="translate(56.489688 397.848883)scale(0.132 -0.132)">
       <use xlink:href="#DejaVuSans-77"/>
       <use x="86.279297" xlink:href="#DejaVuSans-117"/>
       <use x="149.658203" xlink:href="#DejaVuSans-115"/>
       <use x="201.757812" xlink:href="#DejaVuSans-105"/>
       <use x="229.541016" xlink:href="#DejaVuSans-99"/>
       <use x="284.521484" xlink:href="#DejaVuSans-97"/>
       <use x="345.800781" xlink:href="#DejaVuSans-108"/>
      </g>
     </g>
    </g>
    <g id="ytick_15">
     <g id="text_25">
      <!-- Mystery -->
      <g style="fill:#262626;" transform="translate(53.187625 424.536432)scale(0.132 -0.132)">
       <use xlink:href="#DejaVuSans-77"/>
       <use x="86.279297" xlink:href="#DejaVuSans-121"/>
       <use x="145.458984" xlink:href="#DejaVuSans-115"/>
       <use x="197.558594" xlink:href="#DejaVuSans-116"/>
       <use x="236.767578" xlink:href="#DejaVuSans-101"/>
       <use x="298.291016" xlink:href="#DejaVuSans-114"/>
       <use x="339.404297" xlink:href="#DejaVuSans-121"/>
      </g>
     </g>
    </g>
    <g id="ytick_16">
     <g id="text_26">
      <!-- News -->
      <defs>
       <path d="M 9.8125 72.90625 
L 23.09375 72.90625 
L 55.421875 11.921875 
L 55.421875 72.90625 
L 64.984375 72.90625 
L 64.984375 0 
L 51.703125 0 
L 19.390625 60.984375 
L 19.390625 0 
L 9.8125 0 
z
" id="DejaVuSans-78"/>
       <path d="M 4.203125 54.6875 
L 13.1875 54.6875 
L 24.421875 12.015625 
L 35.59375 54.6875 
L 46.1875 54.6875 
L 57.421875 12.015625 
L 68.609375 54.6875 
L 77.59375 54.6875 
L 63.28125 0 
L 52.6875 0 
L 40.921875 44.828125 
L 29.109375 0 
L 18.5 0 
z
" id="DejaVuSans-119"/>
      </defs>
      <g style="fill:#262626;" transform="translate(70.133125 451.223981)scale(0.132 -0.132)">
       <use xlink:href="#DejaVuSans-78"/>
       <use x="74.804688" xlink:href="#DejaVuSans-101"/>
       <use x="136.328125" xlink:href="#DejaVuSans-119"/>
       <use x="218.115234" xlink:href="#DejaVuSans-115"/>
      </g>
     </g>
    </g>
    <g id="ytick_17">
     <g id="text_27">
      <!-- Reality-TV -->
      <defs>
       <path d="M 44.390625 34.1875 
Q 47.5625 33.109375 50.5625 29.59375 
Q 53.5625 26.078125 56.59375 19.921875 
L 66.609375 0 
L 56 0 
L 46.6875 18.703125 
Q 43.0625 26.03125 39.671875 28.421875 
Q 36.28125 30.8125 30.421875 30.8125 
L 19.671875 30.8125 
L 19.671875 0 
L 9.8125 0 
L 9.8125 72.90625 
L 32.078125 72.90625 
Q 44.578125 72.90625 50.734375 67.671875 
Q 56.890625 62.453125 56.890625 51.90625 
Q 56.890625 45.015625 53.6875 40.46875 
Q 50.484375 35.9375 44.390625 34.1875 
z
M 19.671875 64.796875 
L 19.671875 38.921875 
L 32.078125 38.921875 
Q 39.203125 38.921875 42.84375 42.21875 
Q 46.484375 45.515625 46.484375 51.90625 
Q 46.484375 58.296875 42.84375 61.546875 
Q 39.203125 64.796875 32.078125 64.796875 
z
" id="DejaVuSans-82"/>
       <path d="M 4.890625 31.390625 
L 31.203125 31.390625 
L 31.203125 23.390625 
L 4.890625 23.390625 
z
" id="DejaVuSans-45"/>
       <path d="M -0.296875 72.90625 
L 61.375 72.90625 
L 61.375 64.59375 
L 35.5 64.59375 
L 35.5 0 
L 25.59375 0 
L 25.59375 64.59375 
L -0.296875 64.59375 
z
" id="DejaVuSans-84"/>
       <path d="M 28.609375 0 
L 0.78125 72.90625 
L 11.078125 72.90625 
L 34.1875 11.53125 
L 57.328125 72.90625 
L 67.578125 72.90625 
L 39.796875 0 
z
" id="DejaVuSans-86"/>
      </defs>
      <g style="fill:#262626;" transform="translate(40.27225 477.911531)scale(0.132 -0.132)">
       <use xlink:href="#DejaVuSans-82"/>
       <use x="64.982422" xlink:href="#DejaVuSans-101"/>
       <use x="126.505859" xlink:href="#DejaVuSans-97"/>
       <use x="187.785156" xlink:href="#DejaVuSans-108"/>
       <use x="215.568359" xlink:href="#DejaVuSans-105"/>
       <use x="243.351562" xlink:href="#DejaVuSans-116"/>
       <use x="282.560547" xlink:href="#DejaVuSans-121"/>
       <use x="339.990234" xlink:href="#DejaVuSans-45"/>
       <use x="366.949219" xlink:href="#DejaVuSans-84"/>
       <use x="428.033203" xlink:href="#DejaVuSans-86"/>
      </g>
     </g>
    </g>
    <g id="ytick_18">
     <g id="text_28">
      <!-- Romance -->
      <g style="fill:#262626;" transform="translate(44.455 504.59908)scale(0.132 -0.132)">
       <use xlink:href="#DejaVuSans-82"/>
       <use x="64.982422" xlink:href="#DejaVuSans-111"/>
       <use x="126.164062" xlink:href="#DejaVuSans-109"/>
       <use x="223.576172" xlink:href="#DejaVuSans-97"/>
       <use x="284.855469" xlink:href="#DejaVuSans-110"/>
       <use x="348.234375" xlink:href="#DejaVuSans-99"/>
       <use x="403.214844" xlink:href="#DejaVuSans-101"/>
      </g>
     </g>
    </g>
    <g id="ytick_19">
     <g id="text_29">
      <!-- Sci-Fi -->
      <defs>
       <path d="M 53.515625 70.515625 
L 53.515625 60.890625 
Q 47.90625 63.578125 42.921875 64.890625 
Q 37.9375 66.21875 33.296875 66.21875 
Q 25.25 66.21875 20.875 63.09375 
Q 16.5 59.96875 16.5 54.203125 
Q 16.5 49.359375 19.40625 46.890625 
Q 22.3125 44.4375 30.421875 42.921875 
L 36.375 41.703125 
Q 47.40625 39.59375 52.65625 34.296875 
Q 57.90625 29 57.90625 20.125 
Q 57.90625 9.515625 50.796875 4.046875 
Q 43.703125 -1.421875 29.984375 -1.421875 
Q 24.8125 -1.421875 18.96875 -0.25 
Q 13.140625 0.921875 6.890625 3.21875 
L 6.890625 13.375 
Q 12.890625 10.015625 18.65625 8.296875 
Q 24.421875 6.59375 29.984375 6.59375 
Q 38.421875 6.59375 43.015625 9.90625 
Q 47.609375 13.234375 47.609375 19.390625 
Q 47.609375 24.75 44.3125 27.78125 
Q 41.015625 30.8125 33.5 32.328125 
L 27.484375 33.5 
Q 16.453125 35.6875 11.515625 40.375 
Q 6.59375 45.0625 6.59375 53.421875 
Q 6.59375 63.09375 13.40625 68.65625 
Q 20.21875 74.21875 32.171875 74.21875 
Q 37.3125 74.21875 42.625 73.28125 
Q 47.953125 72.359375 53.515625 70.515625 
z
" id="DejaVuSans-83"/>
      </defs>
      <g style="fill:#262626;" transform="translate(71.4325 531.286629)scale(0.132 -0.132)">
       <use xlink:href="#DejaVuSans-83"/>
       <use x="63.476562" xlink:href="#DejaVuSans-99"/>
       <use x="118.457031" xlink:href="#DejaVuSans-105"/>
       <use x="146.240234" xlink:href="#DejaVuSans-45"/>
       <use x="182.324219" xlink:href="#DejaVuSans-70"/>
       <use x="232.59375" xlink:href="#DejaVuSans-105"/>
      </g>
     </g>
    </g>
    <g id="ytick_20">
     <g id="text_30">
      <!-- Sport -->
      <g style="fill:#262626;" transform="translate(70.364125 557.974178)scale(0.132 -0.132)">
       <use xlink:href="#DejaVuSans-83"/>
       <use x="63.476562" xlink:href="#DejaVuSans-112"/>
       <use x="126.953125" xlink:href="#DejaVuSans-111"/>
       <use x="188.134766" xlink:href="#DejaVuSans-114"/>
       <use x="229.248047" xlink:href="#DejaVuSans-116"/>
      </g>
     </g>
    </g>
    <g id="ytick_21">
     <g id="text_31">
      <!-- Thriller -->
      <g style="fill:#262626;" transform="translate(59.397813 584.661727)scale(0.132 -0.132)">
       <use xlink:href="#DejaVuSans-84"/>
       <use x="61.083984" xlink:href="#DejaVuSans-104"/>
       <use x="124.462891" xlink:href="#DejaVuSans-114"/>
       <use x="165.576172" xlink:href="#DejaVuSans-105"/>
       <use x="193.359375" xlink:href="#DejaVuSans-108"/>
       <use x="221.142578" xlink:href="#DejaVuSans-108"/>
       <use x="248.925781" xlink:href="#DejaVuSans-101"/>
       <use x="310.449219" xlink:href="#DejaVuSans-114"/>
      </g>
     </g>
    </g>
    <g id="ytick_22">
     <g id="text_32">
      <!-- War -->
      <defs>
       <path d="M 3.328125 72.90625 
L 13.28125 72.90625 
L 28.609375 11.28125 
L 43.890625 72.90625 
L 54.984375 72.90625 
L 70.3125 11.28125 
L 85.59375 72.90625 
L 95.609375 72.90625 
L 77.296875 0 
L 64.890625 0 
L 49.515625 63.28125 
L 33.984375 0 
L 21.578125 0 
z
" id="DejaVuSans-87"/>
      </defs>
      <g style="fill:#262626;" transform="translate(80.076437 611.349277)scale(0.132 -0.132)">
       <use xlink:href="#DejaVuSans-87"/>
       <use x="92.501953" xlink:href="#DejaVuSans-97"/>
       <use x="153.78125" xlink:href="#DejaVuSans-114"/>
      </g>
     </g>
    </g>
    <g id="ytick_23">
     <g id="text_33">
      <!-- Western -->
      <g style="fill:#262626;" transform="translate(51.669625 638.036826)scale(0.132 -0.132)">
       <use xlink:href="#DejaVuSans-87"/>
       <use x="93.001953" xlink:href="#DejaVuSans-101"/>
       <use x="154.525391" xlink:href="#DejaVuSans-115"/>
       <use x="206.625" xlink:href="#DejaVuSans-116"/>
       <use x="245.833984" xlink:href="#DejaVuSans-101"/>
       <use x="307.357422" xlink:href="#DejaVuSans-114"/>
       <use x="346.720703" xlink:href="#DejaVuSans-110"/>
      </g>
     </g>
    </g>
   </g>
   <g id="patch_3">
    <path clip-path="url(#p3cb9ad1236)" d="M 196.843667 35.220755 
L 196.843667 56.570794 
L 387.758781 56.570794 
L 387.758781 35.220755 
L 196.843667 35.220755 
z
" style="fill:#ea96a3;stroke:#464646;stroke-linejoin:miter;stroke-width:1.5;"/>
   </g>
   <g id="patch_4">
    <path clip-path="url(#p3cb9ad1236)" d="M 228.18531 61.908304 
L 228.18531 83.258343 
L 415.141624 83.258343 
L 415.141624 61.908304 
L 228.18531 61.908304 
z
" style="fill:#e89689;stroke:#464646;stroke-linejoin:miter;stroke-width:1.5;"/>
   </g>
   <g id="patch_5">
    <path clip-path="url(#p3cb9ad1236)" d="M 243.798089 88.595853 
L 243.798089 109.945893 
L 453.794349 109.945893 
L 453.794349 88.595853 
L 243.798089 88.595853 
z
" style="fill:#df914f;stroke:#464646;stroke-linejoin:miter;stroke-width:1.5;"/>
   </g>
   <g id="patch_6">
    <path clip-path="url(#p3cb9ad1236)" d="M 188.30141 115.283403 
L 188.30141 136.633442 
L 428.134532 136.633442 
L 428.134532 115.283403 
L 188.30141 115.283403 
z
" style="fill:#c8984b;stroke:#464646;stroke-linejoin:miter;stroke-width:1.5;"/>
   </g>
   <g id="patch_7">
    <path clip-path="url(#p3cb9ad1236)" d="M 202.411144 141.970952 
L 202.411144 163.320991 
L 431.062493 163.320991 
L 431.062493 141.970952 
L 202.411144 141.970952 
z
" style="fill:#b69c49;stroke:#464646;stroke-linejoin:miter;stroke-width:1.5;"/>
   </g>
   <g id="patch_8">
    <path clip-path="url(#p3cb9ad1236)" d="M 178.740232 168.658501 
L 178.740232 190.00854 
L 355.833512 190.00854 
L 355.833512 168.658501 
L 178.740232 168.658501 
z
" style="fill:#a49f46;stroke:#464646;stroke-linejoin:miter;stroke-width:1.5;"/>
   </g>
   <g id="patch_9">
    <path clip-path="url(#p3cb9ad1236)" d="M 179.745212 195.34605 
L 179.745212 216.69609 
L 381.896357 216.69609 
L 381.896357 195.34605 
L 179.745212 195.34605 
z
" style="fill:#93a346;stroke:#464646;stroke-linejoin:miter;stroke-width:1.5;"/>
   </g>
   <g id="patch_10">
    <path clip-path="url(#p3cb9ad1236)" d="M 179.745212 222.033599 
L 179.745212 243.383639 
L 396.013112 243.383639 
L 396.013112 222.033599 
L 179.745212 222.033599 
z
" style="fill:#7ca947;stroke:#464646;stroke-linejoin:miter;stroke-width:1.5;"/>
   </g>
   <g id="patch_11">
    <path clip-path="url(#p3cb9ad1236)" d="M 192.919732 248.721149 
L 192.919732 270.071188 
L 439.943478 270.071188 
L 439.943478 248.721149 
L 192.919732 248.721149 
z
" style="fill:#48b14d;stroke:#464646;stroke-linejoin:miter;stroke-width:1.5;"/>
   </g>
   <g id="patch_12">
    <path clip-path="url(#p3cb9ad1236)" d="M 219.125151 275.408698 
L 219.125151 296.758737 
L 457.46153 296.758737 
L 457.46153 275.408698 
L 219.125151 275.408698 
z
" style="fill:#49ae7e;stroke:#464646;stroke-linejoin:miter;stroke-width:1.5;"/>
   </g>
   <g id="patch_13">
    <path clip-path="url(#p3cb9ad1236)" d="M 176.084083 302.096247 
L 176.084083 323.446286 
L 368.329182 323.446286 
L 368.329182 302.096247 
L 176.084083 302.096247 
z
" style="fill:#4aad91;stroke:#464646;stroke-linejoin:miter;stroke-width:1.5;"/>
   </g>
   <g id="patch_14">
    <path clip-path="url(#p3cb9ad1236)" d="M 172.090563 328.783796 
L 172.090563 350.133836 
L 538.077946 350.133836 
L 538.077946 328.783796 
L 172.090563 328.783796 
z
" style="fill:#4bac9f;stroke:#464646;stroke-linejoin:miter;stroke-width:1.5;"/>
   </g>
   <g id="patch_15">
    <path clip-path="url(#p3cb9ad1236)" d="M 190.811501 355.471345 
L 190.811501 376.821385 
L 455.696921 376.821385 
L 455.696921 355.471345 
L 190.811501 355.471345 
z
" style="fill:#4babaa;stroke:#464646;stroke-linejoin:miter;stroke-width:1.5;"/>
   </g>
   <g id="patch_16">
    <path clip-path="url(#p3cb9ad1236)" d="M 197.303968 382.158895 
L 197.303968 403.508934 
L 664.412003 403.508934 
L 664.412003 382.158895 
L 197.303968 382.158895 
z
" style="fill:#4eabb7;stroke:#464646;stroke-linejoin:miter;stroke-width:1.5;"/>
   </g>
   <g id="patch_17">
    <path clip-path="url(#p3cb9ad1236)" d="M 182.265146 408.846444 
L 182.265146 430.196483 
L 534.120847 430.196483 
L 534.120847 408.846444 
L 182.265146 408.846444 
z
" style="fill:#51acc6;stroke:#464646;stroke-linejoin:miter;stroke-width:1.5;"/>
   </g>
   <g id="patch_18">
    <path clip-path="url(#p3cb9ad1236)" d="M 223.363823 435.533993 
L 223.363823 456.884032 
L 301.832446 456.884032 
L 301.832446 435.533993 
L 223.363823 435.533993 
z
" style="fill:#56addd;stroke:#464646;stroke-linejoin:miter;stroke-width:1.5;"/>
   </g>
   <g id="patch_19">
    <path clip-path="url(#p3cb9ad1236)" d="M 161.436026 462.221542 
L 161.436026 483.571582 
L 161.436026 483.571582 
L 161.436026 462.221542 
L 161.436026 462.221542 
z
" style="fill:#90aee7;stroke:#464646;stroke-linejoin:miter;stroke-width:1.5;"/>
   </g>
   <g id="patch_20">
    <path clip-path="url(#p3cb9ad1236)" d="M 187.221627 488.909091 
L 187.221627 510.259131 
L 442.836658 510.259131 
L 442.836658 488.909091 
L 187.221627 488.909091 
z
" style="fill:#b0aaeb;stroke:#464646;stroke-linejoin:miter;stroke-width:1.5;"/>
   </g>
   <g id="patch_21">
    <path clip-path="url(#p3cb9ad1236)" d="M 185.496706 515.596641 
L 185.496706 536.94668 
L 444.979342 536.94668 
L 444.979342 515.596641 
L 185.496706 515.596641 
z
" style="fill:#c6a0ea;stroke:#464646;stroke-linejoin:miter;stroke-width:1.5;"/>
   </g>
   <g id="patch_22">
    <path clip-path="url(#p3cb9ad1236)" d="M 186.821654 542.28419 
L 186.821654 563.634229 
L 394.791951 563.634229 
L 394.791951 542.28419 
L 186.821654 542.28419 
z
" style="fill:#db92e8;stroke:#464646;stroke-linejoin:miter;stroke-width:1.5;"/>
   </g>
   <g id="patch_23">
    <path clip-path="url(#p3cb9ad1236)" d="M 175.173826 568.971739 
L 175.173826 590.321778 
L 405.77235 590.321778 
L 405.77235 568.971739 
L 175.173826 568.971739 
z
" style="fill:#e78cda;stroke:#464646;stroke-linejoin:miter;stroke-width:1.5;"/>
   </g>
   <g id="patch_24">
    <path clip-path="url(#p3cb9ad1236)" d="M 167.885227 595.659288 
L 167.885227 617.009328 
L 343.083698 617.009328 
L 343.083698 595.659288 
L 167.885227 595.659288 
z
" style="fill:#e890c7;stroke:#464646;stroke-linejoin:miter;stroke-width:1.5;"/>
   </g>
   <g id="patch_25">
    <path clip-path="url(#p3cb9ad1236)" d="M 166.926107 622.346837 
L 166.926107 643.696877 
L 300.762045 643.696877 
L 300.762045 622.346837 
L 166.926107 622.346837 
z
" style="fill:#e993b6;stroke:#464646;stroke-linejoin:miter;stroke-width:1.5;"/>
   </g>
   <g id="line2d_10">
    <path clip-path="url(#p3cb9ad1236)" d="M 196.843667 45.895775 
L 161.436026 45.895775 
" style="fill:none;stroke:#464646;stroke-linecap:round;stroke-width:1.5;"/>
   </g>
   <g id="line2d_11">
    <path clip-path="url(#p3cb9ad1236)" d="M 387.758781 45.895775 
L 659.939537 45.895775 
" style="fill:none;stroke:#464646;stroke-linecap:round;stroke-width:1.5;"/>
   </g>
   <g id="line2d_12">
    <path clip-path="url(#p3cb9ad1236)" d="M 161.436026 40.558265 
L 161.436026 51.233284 
" style="fill:none;stroke:#464646;stroke-linecap:round;stroke-width:1.5;"/>
   </g>
   <g id="line2d_13">
    <path clip-path="url(#p3cb9ad1236)" d="M 659.939537 40.558265 
L 659.939537 51.233284 
" style="fill:none;stroke:#464646;stroke-linecap:round;stroke-width:1.5;"/>
   </g>
   <g id="line2d_14">
    <path clip-path="url(#p3cb9ad1236)" d="M 228.18531 72.583324 
L 161.436026 72.583324 
" style="fill:none;stroke:#464646;stroke-linecap:round;stroke-width:1.5;"/>
   </g>
   <g id="line2d_15">
    <path clip-path="url(#p3cb9ad1236)" d="M 415.141624 72.583324 
L 691.811422 72.583324 
" style="fill:none;stroke:#464646;stroke-linecap:round;stroke-width:1.5;"/>
   </g>
   <g id="line2d_16">
    <path clip-path="url(#p3cb9ad1236)" d="M 161.436026 67.245814 
L 161.436026 77.920834 
" style="fill:none;stroke:#464646;stroke-linecap:round;stroke-width:1.5;"/>
   </g>
   <g id="line2d_17">
    <path clip-path="url(#p3cb9ad1236)" d="M 691.811422 67.245814 
L 691.811422 77.920834 
" style="fill:none;stroke:#464646;stroke-linecap:round;stroke-width:1.5;"/>
   </g>
   <g id="line2d_18">
    <path clip-path="url(#p3cb9ad1236)" d="M 243.798089 99.270873 
L 161.436026 99.270873 
" style="fill:none;stroke:#464646;stroke-linecap:round;stroke-width:1.5;"/>
   </g>
   <g id="line2d_19">
    <path clip-path="url(#p3cb9ad1236)" d="M 453.794349 99.270873 
L 736.945384 99.270873 
" style="fill:none;stroke:#464646;stroke-linecap:round;stroke-width:1.5;"/>
   </g>
   <g id="line2d_20">
    <path clip-path="url(#p3cb9ad1236)" d="M 161.436026 93.933363 
L 161.436026 104.608383 
" style="fill:none;stroke:#464646;stroke-linecap:round;stroke-width:1.5;"/>
   </g>
   <g id="line2d_21">
    <path clip-path="url(#p3cb9ad1236)" d="M 736.945384 93.933363 
L 736.945384 104.608383 
" style="fill:none;stroke:#464646;stroke-linecap:round;stroke-width:1.5;"/>
   </g>
   <g id="line2d_22">
    <path clip-path="url(#p3cb9ad1236)" d="M 188.30141 125.958422 
L 161.436026 125.958422 
" style="fill:none;stroke:#464646;stroke-linecap:round;stroke-width:1.5;"/>
   </g>
   <g id="line2d_23">
    <path clip-path="url(#p3cb9ad1236)" d="M 428.134532 125.958422 
L 753.76931 125.958422 
" style="fill:none;stroke:#464646;stroke-linecap:round;stroke-width:1.5;"/>
   </g>
   <g id="line2d_24">
    <path clip-path="url(#p3cb9ad1236)" d="M 161.436026 120.620912 
L 161.436026 131.295932 
" style="fill:none;stroke:#464646;stroke-linecap:round;stroke-width:1.5;"/>
   </g>
   <g id="line2d_25">
    <path clip-path="url(#p3cb9ad1236)" d="M 753.76931 120.620912 
L 753.76931 131.295932 
" style="fill:none;stroke:#464646;stroke-linecap:round;stroke-width:1.5;"/>
   </g>
   <g id="line2d_26">
    <path clip-path="url(#p3cb9ad1236)" d="M 202.411144 152.645971 
L 161.436026 152.645971 
" style="fill:none;stroke:#464646;stroke-linecap:round;stroke-width:1.5;"/>
   </g>
   <g id="line2d_27">
    <path clip-path="url(#p3cb9ad1236)" d="M 431.062493 152.645971 
L 761.473024 152.645971 
" style="fill:none;stroke:#464646;stroke-linecap:round;stroke-width:1.5;"/>
   </g>
   <g id="line2d_28">
    <path clip-path="url(#p3cb9ad1236)" d="M 161.436026 147.308462 
L 161.436026 157.983481 
" style="fill:none;stroke:#464646;stroke-linecap:round;stroke-width:1.5;"/>
   </g>
   <g id="line2d_29">
    <path clip-path="url(#p3cb9ad1236)" d="M 761.473024 147.308462 
L 761.473024 157.983481 
" style="fill:none;stroke:#464646;stroke-linecap:round;stroke-width:1.5;"/>
   </g>
   <g id="line2d_30">
    <path clip-path="url(#p3cb9ad1236)" d="M 178.740232 179.333521 
L 161.436026 179.333521 
" style="fill:none;stroke:#464646;stroke-linecap:round;stroke-width:1.5;"/>
   </g>
   <g id="line2d_31">
    <path clip-path="url(#p3cb9ad1236)" d="M 355.833512 179.333521 
L 617.459248 179.333521 
" style="fill:none;stroke:#464646;stroke-linecap:round;stroke-width:1.5;"/>
   </g>
   <g id="line2d_32">
    <path clip-path="url(#p3cb9ad1236)" d="M 161.436026 173.996011 
L 161.436026 184.67103 
" style="fill:none;stroke:#464646;stroke-linecap:round;stroke-width:1.5;"/>
   </g>
   <g id="line2d_33">
    <path clip-path="url(#p3cb9ad1236)" d="M 617.459248 173.996011 
L 617.459248 184.67103 
" style="fill:none;stroke:#464646;stroke-linecap:round;stroke-width:1.5;"/>
   </g>
   <g id="line2d_34">
    <path clip-path="url(#p3cb9ad1236)" d="M 179.745212 206.02107 
L 161.436026 206.02107 
" style="fill:none;stroke:#464646;stroke-linecap:round;stroke-width:1.5;"/>
   </g>
   <g id="line2d_35">
    <path clip-path="url(#p3cb9ad1236)" d="M 381.896357 206.02107 
L 673.83491 206.02107 
" style="fill:none;stroke:#464646;stroke-linecap:round;stroke-width:1.5;"/>
   </g>
   <g id="line2d_36">
    <path clip-path="url(#p3cb9ad1236)" d="M 161.436026 200.68356 
L 161.436026 211.35858 
" style="fill:none;stroke:#464646;stroke-linecap:round;stroke-width:1.5;"/>
   </g>
   <g id="line2d_37">
    <path clip-path="url(#p3cb9ad1236)" d="M 673.83491 200.68356 
L 673.83491 211.35858 
" style="fill:none;stroke:#464646;stroke-linecap:round;stroke-width:1.5;"/>
   </g>
   <g id="line2d_38">
    <path clip-path="url(#p3cb9ad1236)" d="M 179.745212 232.708619 
L 161.436026 232.708619 
" style="fill:none;stroke:#464646;stroke-linecap:round;stroke-width:1.5;"/>
   </g>
   <g id="line2d_39">
    <path clip-path="url(#p3cb9ad1236)" d="M 396.013112 232.708619 
L 719.145241 232.708619 
" style="fill:none;stroke:#464646;stroke-linecap:round;stroke-width:1.5;"/>
   </g>
   <g id="line2d_40">
    <path clip-path="url(#p3cb9ad1236)" d="M 161.436026 227.371109 
L 161.436026 238.046129 
" style="fill:none;stroke:#464646;stroke-linecap:round;stroke-width:1.5;"/>
   </g>
   <g id="line2d_41">
    <path clip-path="url(#p3cb9ad1236)" d="M 719.145241 227.371109 
L 719.145241 238.046129 
" style="fill:none;stroke:#464646;stroke-linecap:round;stroke-width:1.5;"/>
   </g>
   <g id="line2d_42">
    <path clip-path="url(#p3cb9ad1236)" d="M 192.919732 259.396168 
L 161.436026 259.396168 
" style="fill:none;stroke:#464646;stroke-linecap:round;stroke-width:1.5;"/>
   </g>
   <g id="line2d_43">
    <path clip-path="url(#p3cb9ad1236)" d="M 439.943478 259.396168 
L 802.422493 259.396168 
" style="fill:none;stroke:#464646;stroke-linecap:round;stroke-width:1.5;"/>
   </g>
   <g id="line2d_44">
    <path clip-path="url(#p3cb9ad1236)" d="M 161.436026 254.058658 
L 161.436026 264.733678 
" style="fill:none;stroke:#464646;stroke-linecap:round;stroke-width:1.5;"/>
   </g>
   <g id="line2d_45">
    <path clip-path="url(#p3cb9ad1236)" d="M 802.422493 254.058658 
L 802.422493 264.733678 
" style="fill:none;stroke:#464646;stroke-linecap:round;stroke-width:1.5;"/>
   </g>
   <g id="line2d_46">
    <path clip-path="url(#p3cb9ad1236)" d="M 219.125151 286.083717 
L 161.436026 286.083717 
" style="fill:none;stroke:#464646;stroke-linecap:round;stroke-width:1.5;"/>
   </g>
   <g id="line2d_47">
    <path clip-path="url(#p3cb9ad1236)" d="M 457.46153 286.083717 
L 769.17394 286.083717 
" style="fill:none;stroke:#464646;stroke-linecap:round;stroke-width:1.5;"/>
   </g>
   <g id="line2d_48">
    <path clip-path="url(#p3cb9ad1236)" d="M 161.436026 280.746208 
L 161.436026 291.421227 
" style="fill:none;stroke:#464646;stroke-linecap:round;stroke-width:1.5;"/>
   </g>
   <g id="line2d_49">
    <path clip-path="url(#p3cb9ad1236)" d="M 769.17394 280.746208 
L 769.17394 291.421227 
" style="fill:none;stroke:#464646;stroke-linecap:round;stroke-width:1.5;"/>
   </g>
   <g id="line2d_50">
    <path clip-path="url(#p3cb9ad1236)" d="M 176.084083 312.771267 
L 161.436026 312.771267 
" style="fill:none;stroke:#464646;stroke-linecap:round;stroke-width:1.5;"/>
   </g>
   <g id="line2d_51">
    <path clip-path="url(#p3cb9ad1236)" d="M 368.329182 312.771267 
L 552.685847 312.771267 
" style="fill:none;stroke:#464646;stroke-linecap:round;stroke-width:1.5;"/>
   </g>
   <g id="line2d_52">
    <path clip-path="url(#p3cb9ad1236)" d="M 161.436026 307.433757 
L 161.436026 318.108776 
" style="fill:none;stroke:#464646;stroke-linecap:round;stroke-width:1.5;"/>
   </g>
   <g id="line2d_53">
    <path clip-path="url(#p3cb9ad1236)" d="M 552.685847 307.433757 
L 552.685847 318.108776 
" style="fill:none;stroke:#464646;stroke-linecap:round;stroke-width:1.5;"/>
   </g>
   <g id="line2d_54">
    <path clip-path="url(#p3cb9ad1236)" d="M 172.090563 339.458816 
L 161.436026 339.458816 
" style="fill:none;stroke:#464646;stroke-linecap:round;stroke-width:1.5;"/>
   </g>
   <g id="line2d_55">
    <path clip-path="url(#p3cb9ad1236)" d="M 538.077946 339.458816 
L 1084.116543 339.458816 
" style="fill:none;stroke:#464646;stroke-linecap:round;stroke-width:1.5;"/>
   </g>
   <g id="line2d_56">
    <path clip-path="url(#p3cb9ad1236)" d="M 161.436026 334.121306 
L 161.436026 344.796326 
" style="fill:none;stroke:#464646;stroke-linecap:round;stroke-width:1.5;"/>
   </g>
   <g id="line2d_57">
    <path clip-path="url(#p3cb9ad1236)" d="M 1084.116543 334.121306 
L 1084.116543 344.796326 
" style="fill:none;stroke:#464646;stroke-linecap:round;stroke-width:1.5;"/>
   </g>
   <g id="line2d_58">
    <path clip-path="url(#p3cb9ad1236)" d="M 190.811501 366.146365 
L 161.436026 366.146365 
" style="fill:none;stroke:#464646;stroke-linecap:round;stroke-width:1.5;"/>
   </g>
   <g id="line2d_59">
    <path clip-path="url(#p3cb9ad1236)" d="M 455.696921 366.146365 
L 801.638056 366.146365 
" style="fill:none;stroke:#464646;stroke-linecap:round;stroke-width:1.5;"/>
   </g>
   <g id="line2d_60">
    <path clip-path="url(#p3cb9ad1236)" d="M 161.436026 360.808855 
L 161.436026 371.483875 
" style="fill:none;stroke:#464646;stroke-linecap:round;stroke-width:1.5;"/>
   </g>
   <g id="line2d_61">
    <path clip-path="url(#p3cb9ad1236)" d="M 801.638056 360.808855 
L 801.638056 371.483875 
" style="fill:none;stroke:#464646;stroke-linecap:round;stroke-width:1.5;"/>
   </g>
   <g id="line2d_62">
    <path clip-path="url(#p3cb9ad1236)" d="M 197.303968 392.833914 
L 161.436026 392.833914 
" style="fill:none;stroke:#464646;stroke-linecap:round;stroke-width:1.5;"/>
   </g>
   <g id="line2d_63">
    <path clip-path="url(#p3cb9ad1236)" d="M 664.412003 392.833914 
L 826.284099 392.833914 
" style="fill:none;stroke:#464646;stroke-linecap:round;stroke-width:1.5;"/>
   </g>
   <g id="line2d_64">
    <path clip-path="url(#p3cb9ad1236)" d="M 161.436026 387.496404 
L 161.436026 398.171424 
" style="fill:none;stroke:#464646;stroke-linecap:round;stroke-width:1.5;"/>
   </g>
   <g id="line2d_65">
    <path clip-path="url(#p3cb9ad1236)" d="M 826.284099 387.496404 
L 826.284099 398.171424 
" style="fill:none;stroke:#464646;stroke-linecap:round;stroke-width:1.5;"/>
   </g>
   <g id="line2d_66">
    <path clip-path="url(#p3cb9ad1236)" d="M 182.265146 419.521463 
L 161.436026 419.521463 
" style="fill:none;stroke:#464646;stroke-linecap:round;stroke-width:1.5;"/>
   </g>
   <g id="line2d_67">
    <path clip-path="url(#p3cb9ad1236)" d="M 534.120847 419.521463 
L 1055.634472 419.521463 
" style="fill:none;stroke:#464646;stroke-linecap:round;stroke-width:1.5;"/>
   </g>
   <g id="line2d_68">
    <path clip-path="url(#p3cb9ad1236)" d="M 161.436026 414.183954 
L 161.436026 424.858973 
" style="fill:none;stroke:#464646;stroke-linecap:round;stroke-width:1.5;"/>
   </g>
   <g id="line2d_69">
    <path clip-path="url(#p3cb9ad1236)" d="M 1055.634472 414.183954 
L 1055.634472 424.858973 
" style="fill:none;stroke:#464646;stroke-linecap:round;stroke-width:1.5;"/>
   </g>
   <g id="line2d_70">
    <path clip-path="url(#p3cb9ad1236)" d="M 223.363823 446.209013 
L 169.363829 446.209013 
" style="fill:none;stroke:#464646;stroke-linecap:round;stroke-width:1.5;"/>
   </g>
   <g id="line2d_71">
    <path clip-path="url(#p3cb9ad1236)" d="M 301.832446 446.209013 
L 364.774393 446.209013 
" style="fill:none;stroke:#464646;stroke-linecap:round;stroke-width:1.5;"/>
   </g>
   <g id="line2d_72">
    <path clip-path="url(#p3cb9ad1236)" d="M 169.363829 440.871503 
L 169.363829 451.546523 
" style="fill:none;stroke:#464646;stroke-linecap:round;stroke-width:1.5;"/>
   </g>
   <g id="line2d_73">
    <path clip-path="url(#p3cb9ad1236)" d="M 364.774393 440.871503 
L 364.774393 451.546523 
" style="fill:none;stroke:#464646;stroke-linecap:round;stroke-width:1.5;"/>
   </g>
   <g id="line2d_74">
    <path clip-path="url(#p3cb9ad1236)" d="M 161.436026 472.896562 
L 161.436026 472.896562 
" style="fill:none;stroke:#464646;stroke-linecap:round;stroke-width:1.5;"/>
   </g>
   <g id="line2d_75">
    <path clip-path="url(#p3cb9ad1236)" d="M 161.436026 472.896562 
L 161.436026 472.896562 
" style="fill:none;stroke:#464646;stroke-linecap:round;stroke-width:1.5;"/>
   </g>
   <g id="line2d_76">
    <path clip-path="url(#p3cb9ad1236)" d="M 161.436026 467.559052 
L 161.436026 478.234072 
" style="fill:none;stroke:#464646;stroke-linecap:round;stroke-width:1.5;"/>
   </g>
   <g id="line2d_77">
    <path clip-path="url(#p3cb9ad1236)" d="M 161.436026 467.559052 
L 161.436026 478.234072 
" style="fill:none;stroke:#464646;stroke-linecap:round;stroke-width:1.5;"/>
   </g>
   <g id="line2d_78">
    <path clip-path="url(#p3cb9ad1236)" d="M 187.221627 499.584111 
L 161.436026 499.584111 
" style="fill:none;stroke:#464646;stroke-linecap:round;stroke-width:1.5;"/>
   </g>
   <g id="line2d_79">
    <path clip-path="url(#p3cb9ad1236)" d="M 442.836658 499.584111 
L 812.821694 499.584111 
" style="fill:none;stroke:#464646;stroke-linecap:round;stroke-width:1.5;"/>
   </g>
   <g id="line2d_80">
    <path clip-path="url(#p3cb9ad1236)" d="M 161.436026 494.246601 
L 161.436026 504.921621 
" style="fill:none;stroke:#464646;stroke-linecap:round;stroke-width:1.5;"/>
   </g>
   <g id="line2d_81">
    <path clip-path="url(#p3cb9ad1236)" d="M 812.821694 494.246601 
L 812.821694 504.921621 
" style="fill:none;stroke:#464646;stroke-linecap:round;stroke-width:1.5;"/>
   </g>
   <g id="line2d_82">
    <path clip-path="url(#p3cb9ad1236)" d="M 185.496706 526.27166 
L 161.436026 526.27166 
" style="fill:none;stroke:#464646;stroke-linecap:round;stroke-width:1.5;"/>
   </g>
   <g id="line2d_83">
    <path clip-path="url(#p3cb9ad1236)" d="M 444.979342 526.27166 
L 827.898755 526.27166 
" style="fill:none;stroke:#464646;stroke-linecap:round;stroke-width:1.5;"/>
   </g>
   <g id="line2d_84">
    <path clip-path="url(#p3cb9ad1236)" d="M 161.436026 520.93415 
L 161.436026 531.60917 
" style="fill:none;stroke:#464646;stroke-linecap:round;stroke-width:1.5;"/>
   </g>
   <g id="line2d_85">
    <path clip-path="url(#p3cb9ad1236)" d="M 827.898755 520.93415 
L 827.898755 531.60917 
" style="fill:none;stroke:#464646;stroke-linecap:round;stroke-width:1.5;"/>
   </g>
   <g id="line2d_86">
    <path clip-path="url(#p3cb9ad1236)" d="M 186.821654 552.959209 
L 161.436026 552.959209 
" style="fill:none;stroke:#464646;stroke-linecap:round;stroke-width:1.5;"/>
   </g>
   <g id="line2d_87">
    <path clip-path="url(#p3cb9ad1236)" d="M 394.791951 552.959209 
L 670.556877 552.959209 
" style="fill:none;stroke:#464646;stroke-linecap:round;stroke-width:1.5;"/>
   </g>
   <g id="line2d_88">
    <path clip-path="url(#p3cb9ad1236)" d="M 161.436026 547.6217 
L 161.436026 558.296719 
" style="fill:none;stroke:#464646;stroke-linecap:round;stroke-width:1.5;"/>
   </g>
   <g id="line2d_89">
    <path clip-path="url(#p3cb9ad1236)" d="M 670.556877 547.6217 
L 670.556877 558.296719 
" style="fill:none;stroke:#464646;stroke-linecap:round;stroke-width:1.5;"/>
   </g>
   <g id="line2d_90">
    <path clip-path="url(#p3cb9ad1236)" d="M 175.173826 579.646759 
L 161.436026 579.646759 
" style="fill:none;stroke:#464646;stroke-linecap:round;stroke-width:1.5;"/>
   </g>
   <g id="line2d_91">
    <path clip-path="url(#p3cb9ad1236)" d="M 405.77235 579.646759 
L 749.859537 579.646759 
" style="fill:none;stroke:#464646;stroke-linecap:round;stroke-width:1.5;"/>
   </g>
   <g id="line2d_92">
    <path clip-path="url(#p3cb9ad1236)" d="M 161.436026 574.309249 
L 161.436026 584.984269 
" style="fill:none;stroke:#464646;stroke-linecap:round;stroke-width:1.5;"/>
   </g>
   <g id="line2d_93">
    <path clip-path="url(#p3cb9ad1236)" d="M 749.859537 574.309249 
L 749.859537 584.984269 
" style="fill:none;stroke:#464646;stroke-linecap:round;stroke-width:1.5;"/>
   </g>
   <g id="line2d_94">
    <path clip-path="url(#p3cb9ad1236)" d="M 167.885227 606.334308 
L 161.436026 606.334308 
" style="fill:none;stroke:#464646;stroke-linecap:round;stroke-width:1.5;"/>
   </g>
   <g id="line2d_95">
    <path clip-path="url(#p3cb9ad1236)" d="M 343.083698 606.334308 
L 566.822987 606.334308 
" style="fill:none;stroke:#464646;stroke-linecap:round;stroke-width:1.5;"/>
   </g>
   <g id="line2d_96">
    <path clip-path="url(#p3cb9ad1236)" d="M 161.436026 600.996798 
L 161.436026 611.671818 
" style="fill:none;stroke:#464646;stroke-linecap:round;stroke-width:1.5;"/>
   </g>
   <g id="line2d_97">
    <path clip-path="url(#p3cb9ad1236)" d="M 566.822987 600.996798 
L 566.822987 611.671818 
" style="fill:none;stroke:#464646;stroke-linecap:round;stroke-width:1.5;"/>
   </g>
   <g id="line2d_98">
    <path clip-path="url(#p3cb9ad1236)" d="M 166.926107 633.021857 
L 161.436026 633.021857 
" style="fill:none;stroke:#464646;stroke-linecap:round;stroke-width:1.5;"/>
   </g>
   <g id="line2d_99">
    <path clip-path="url(#p3cb9ad1236)" d="M 300.762045 633.021857 
L 441.107528 633.021857 
" style="fill:none;stroke:#464646;stroke-linecap:round;stroke-width:1.5;"/>
   </g>
   <g id="line2d_100">
    <path clip-path="url(#p3cb9ad1236)" d="M 161.436026 627.684347 
L 161.436026 638.359367 
" style="fill:none;stroke:#464646;stroke-linecap:round;stroke-width:1.5;"/>
   </g>
   <g id="line2d_101">
    <path clip-path="url(#p3cb9ad1236)" d="M 441.107528 627.684347 
L 441.107528 638.359367 
" style="fill:none;stroke:#464646;stroke-linecap:round;stroke-width:1.5;"/>
   </g>
   <g id="line2d_102">
    <path clip-path="url(#p3cb9ad1236)" d="M 207.07777 646.365632 
L 207.07777 -1 
" style="fill:none;stroke:#c44e52;stroke-linecap:round;stroke-width:1.5;"/>
   </g>
   <g id="line2d_103">
    <path clip-path="url(#p3cb9ad1236)" d="M 274.985347 35.220755 
L 274.985347 56.570794 
" style="fill:none;stroke:#464646;stroke-linecap:round;stroke-width:1.5;"/>
   </g>
   <g id="line2d_104">
    <path clip-path="url(#p3cb9ad1236)" d="M 315.925991 61.908304 
L 315.925991 83.258343 
" style="fill:none;stroke:#464646;stroke-linecap:round;stroke-width:1.5;"/>
   </g>
   <g id="line2d_105">
    <path clip-path="url(#p3cb9ad1236)" d="M 338.238227 88.595853 
L 338.238227 109.945893 
" style="fill:none;stroke:#464646;stroke-linecap:round;stroke-width:1.5;"/>
   </g>
   <g id="line2d_106">
    <path clip-path="url(#p3cb9ad1236)" d="M 258.985777 115.283403 
L 258.985777 136.633442 
" style="fill:none;stroke:#464646;stroke-linecap:round;stroke-width:1.5;"/>
   </g>
   <g id="line2d_107">
    <path clip-path="url(#p3cb9ad1236)" d="M 299.496701 141.970952 
L 299.496701 163.320991 
" style="fill:none;stroke:#464646;stroke-linecap:round;stroke-width:1.5;"/>
   </g>
   <g id="line2d_108">
    <path clip-path="url(#p3cb9ad1236)" d="M 245.463735 168.658501 
L 245.463735 190.00854 
" style="fill:none;stroke:#464646;stroke-linecap:round;stroke-width:1.5;"/>
   </g>
   <g id="line2d_109">
    <path clip-path="url(#p3cb9ad1236)" d="M 253.591748 195.34605 
L 253.591748 216.69609 
" style="fill:none;stroke:#464646;stroke-linecap:round;stroke-width:1.5;"/>
   </g>
   <g id="line2d_110">
    <path clip-path="url(#p3cb9ad1236)" d="M 252.650047 222.033599 
L 252.650047 243.383639 
" style="fill:none;stroke:#464646;stroke-linecap:round;stroke-width:1.5;"/>
   </g>
   <g id="line2d_111">
    <path clip-path="url(#p3cb9ad1236)" d="M 304.825425 248.721149 
L 304.825425 270.071188 
" style="fill:none;stroke:#464646;stroke-linecap:round;stroke-width:1.5;"/>
   </g>
   <g id="line2d_112">
    <path clip-path="url(#p3cb9ad1236)" d="M 296.292528 275.408698 
L 296.292528 296.758737 
" style="fill:none;stroke:#464646;stroke-linecap:round;stroke-width:1.5;"/>
   </g>
   <g id="line2d_113">
    <path clip-path="url(#p3cb9ad1236)" d="M 254.250884 302.096247 
L 254.250884 323.446286 
" style="fill:none;stroke:#464646;stroke-linecap:round;stroke-width:1.5;"/>
   </g>
   <g id="line2d_114">
    <path clip-path="url(#p3cb9ad1236)" d="M 260.67582 328.783796 
L 260.67582 350.133836 
" style="fill:none;stroke:#464646;stroke-linecap:round;stroke-width:1.5;"/>
   </g>
   <g id="line2d_115">
    <path clip-path="url(#p3cb9ad1236)" d="M 289.609163 355.471345 
L 289.609163 376.821385 
" style="fill:none;stroke:#464646;stroke-linecap:round;stroke-width:1.5;"/>
   </g>
   <g id="line2d_116">
    <path clip-path="url(#p3cb9ad1236)" d="M 461.983788 382.158895 
L 461.983788 403.508934 
" style="fill:none;stroke:#464646;stroke-linecap:round;stroke-width:1.5;"/>
   </g>
   <g id="line2d_117">
    <path clip-path="url(#p3cb9ad1236)" d="M 278.91783 408.846444 
L 278.91783 430.196483 
" style="fill:none;stroke:#464646;stroke-linecap:round;stroke-width:1.5;"/>
   </g>
   <g id="line2d_118">
    <path clip-path="url(#p3cb9ad1236)" d="M 254.515135 435.533993 
L 254.515135 456.884032 
" style="fill:none;stroke:#464646;stroke-linecap:round;stroke-width:1.5;"/>
   </g>
   <g id="line2d_119">
    <path clip-path="url(#p3cb9ad1236)" d="M 161.436026 462.221542 
L 161.436026 483.571582 
" style="fill:none;stroke:#464646;stroke-linecap:round;stroke-width:1.5;"/>
   </g>
   <g id="line2d_120">
    <path clip-path="url(#p3cb9ad1236)" d="M 280.500645 488.909091 
L 280.500645 510.259131 
" style="fill:none;stroke:#464646;stroke-linecap:round;stroke-width:1.5;"/>
   </g>
   <g id="line2d_121">
    <path clip-path="url(#p3cb9ad1236)" d="M 283.788394 515.596641 
L 283.788394 536.94668 
" style="fill:none;stroke:#464646;stroke-linecap:round;stroke-width:1.5;"/>
   </g>
   <g id="line2d_122">
    <path clip-path="url(#p3cb9ad1236)" d="M 257.16971 542.28419 
L 257.16971 563.634229 
" style="fill:none;stroke:#464646;stroke-linecap:round;stroke-width:1.5;"/>
   </g>
   <g id="line2d_123">
    <path clip-path="url(#p3cb9ad1236)" d="M 251.640063 568.971739 
L 251.640063 590.321778 
" style="fill:none;stroke:#464646;stroke-linecap:round;stroke-width:1.5;"/>
   </g>
   <g id="line2d_124">
    <path clip-path="url(#p3cb9ad1236)" d="M 231.652134 595.659288 
L 231.652134 617.009328 
" style="fill:none;stroke:#464646;stroke-linecap:round;stroke-width:1.5;"/>
   </g>
   <g id="line2d_125">
    <path clip-path="url(#p3cb9ad1236)" d="M 186.444241 622.346837 
L 186.444241 643.696877 
" style="fill:none;stroke:#464646;stroke-linecap:round;stroke-width:1.5;"/>
   </g>
   <g id="patch_26">
    <path d="M 115.302 646.365632 
L 115.302 32.552 
" style="fill:none;stroke:#ffffff;stroke-linecap:square;stroke-linejoin:miter;stroke-width:1.25;"/>
   </g>
   <g id="patch_27">
    <path d="M 1130.250569 646.365632 
L 1130.250569 32.552 
" style="fill:none;stroke:#ffffff;stroke-linecap:square;stroke-linejoin:miter;stroke-width:1.25;"/>
   </g>
   <g id="patch_28">
    <path d="M 115.302 646.365632 
L 1130.250569 646.365632 
" style="fill:none;stroke:#ffffff;stroke-linecap:square;stroke-linejoin:miter;stroke-width:1.25;"/>
   </g>
   <g id="patch_29">
    <path d="M 115.302 32.552 
L 1130.250569 32.552 
" style="fill:none;stroke:#ffffff;stroke-linecap:square;stroke-linejoin:miter;stroke-width:1.25;"/>
   </g>
   <g id="text_34">
    <!-- Profit Margin Distribution by Genre -->
    <defs>
     <path d="M 48.6875 27.296875 
Q 48.6875 37.203125 44.609375 42.84375 
Q 40.53125 48.484375 33.40625 48.484375 
Q 26.265625 48.484375 22.1875 42.84375 
Q 18.109375 37.203125 18.109375 27.296875 
Q 18.109375 17.390625 22.1875 11.75 
Q 26.265625 6.109375 33.40625 6.109375 
Q 40.53125 6.109375 44.609375 11.75 
Q 48.6875 17.390625 48.6875 27.296875 
z
M 18.109375 46.390625 
Q 20.953125 51.265625 25.265625 53.625 
Q 29.59375 56 35.59375 56 
Q 45.5625 56 51.78125 48.09375 
Q 58.015625 40.1875 58.015625 27.296875 
Q 58.015625 14.40625 51.78125 6.484375 
Q 45.5625 -1.421875 35.59375 -1.421875 
Q 29.59375 -1.421875 25.265625 0.953125 
Q 20.953125 3.328125 18.109375 8.203125 
L 18.109375 0 
L 9.078125 0 
L 9.078125 75.984375 
L 18.109375 75.984375 
z
" id="DejaVuSans-98"/>
     <path d="M 59.515625 10.40625 
L 59.515625 29.984375 
L 43.40625 29.984375 
L 43.40625 38.09375 
L 69.28125 38.09375 
L 69.28125 6.78125 
Q 63.578125 2.734375 56.6875 0.65625 
Q 49.8125 -1.421875 42 -1.421875 
Q 24.90625 -1.421875 15.25 8.5625 
Q 5.609375 18.5625 5.609375 36.375 
Q 5.609375 54.25 15.25 64.234375 
Q 24.90625 74.21875 42 74.21875 
Q 49.125 74.21875 55.546875 72.453125 
Q 61.96875 70.703125 67.390625 67.28125 
L 67.390625 56.78125 
Q 61.921875 61.421875 55.765625 63.765625 
Q 49.609375 66.109375 42.828125 66.109375 
Q 29.4375 66.109375 22.71875 58.640625 
Q 16.015625 51.171875 16.015625 36.375 
Q 16.015625 21.625 22.71875 14.15625 
Q 29.4375 6.6875 42.828125 6.6875 
Q 48.046875 6.6875 52.140625 7.59375 
Q 56.25 8.5 59.515625 10.40625 
z
" id="DejaVuSans-71"/>
    </defs>
    <g style="fill:#262626;" transform="translate(497.618909 26.552)scale(0.144 -0.144)">
     <use xlink:href="#DejaVuSans-80"/>
     <use x="58.552734" xlink:href="#DejaVuSans-114"/>
     <use x="97.416016" xlink:href="#DejaVuSans-111"/>
     <use x="158.597656" xlink:href="#DejaVuSans-102"/>
     <use x="193.802734" xlink:href="#DejaVuSans-105"/>
     <use x="221.585938" xlink:href="#DejaVuSans-116"/>
     <use x="260.794922" xlink:href="#DejaVuSans-32"/>
     <use x="292.582031" xlink:href="#DejaVuSans-77"/>
     <use x="378.861328" xlink:href="#DejaVuSans-97"/>
     <use x="440.140625" xlink:href="#DejaVuSans-114"/>
     <use x="479.503906" xlink:href="#DejaVuSans-103"/>
     <use x="542.980469" xlink:href="#DejaVuSans-105"/>
     <use x="570.763672" xlink:href="#DejaVuSans-110"/>
     <use x="634.142578" xlink:href="#DejaVuSans-32"/>
     <use x="665.929688" xlink:href="#DejaVuSans-68"/>
     <use x="742.931641" xlink:href="#DejaVuSans-105"/>
     <use x="770.714844" xlink:href="#DejaVuSans-115"/>
     <use x="822.814453" xlink:href="#DejaVuSans-116"/>
     <use x="862.023438" xlink:href="#DejaVuSans-114"/>
     <use x="903.136719" xlink:href="#DejaVuSans-105"/>
     <use x="930.919922" xlink:href="#DejaVuSans-98"/>
     <use x="994.396484" xlink:href="#DejaVuSans-117"/>
     <use x="1057.775391" xlink:href="#DejaVuSans-116"/>
     <use x="1096.984375" xlink:href="#DejaVuSans-105"/>
     <use x="1124.767578" xlink:href="#DejaVuSans-111"/>
     <use x="1185.949219" xlink:href="#DejaVuSans-110"/>
     <use x="1249.328125" xlink:href="#DejaVuSans-32"/>
     <use x="1281.115234" xlink:href="#DejaVuSans-98"/>
     <use x="1344.591797" xlink:href="#DejaVuSans-121"/>
     <use x="1403.771484" xlink:href="#DejaVuSans-32"/>
     <use x="1435.558594" xlink:href="#DejaVuSans-71"/>
     <use x="1513.048828" xlink:href="#DejaVuSans-101"/>
     <use x="1574.572266" xlink:href="#DejaVuSans-110"/>
     <use x="1637.951172" xlink:href="#DejaVuSans-114"/>
     <use x="1676.814453" xlink:href="#DejaVuSans-101"/>
    </g>
   </g>
  </g>
 </g>
 <defs>
  <clipPath id="p3cb9ad1236">
   <rect height="613.813632" width="1014.948569" x="115.302" y="32.552"/>
  </clipPath>
 </defs>
</svg>
